# xmcd
#
# Track frame offsets: 
#        150
#        14525
#        36120
#        52310
#        68052
#        90150
#        108482
#        126572
#        139830
#        159982
#        177165
#        193107
#        210192
#        230407
#        245357
#        262175
#        273750
#        291697
#        308497
#        328967
#
# Disc length: 4581 seconds
#
# Revision: 0
# Processed by: cddbd v1.5.2PL0 Copyright (c) Steve Scherf et al.
# Submitted via: ExactAudioCopy v0.99pb4
#
DISCID=2a11e314
DTITLE=Kimura Yoshio And Sano Hiromi  - Kettaiban! 100 [CD4)
DYEAR=2003
DGENRE=Instrumental
TTITLE0=Red Handkerchief
TTITLE1=Hot Heart
TTITLE2=Ammann
TTITLE3=Waltz Cry Alone At Night
TTITLE4=As The River
TTITLE5=North Country Spring
TTITLE6=Gardenia Flower
TTITLE7=Goodbye My Love
TTITLE8=The Inn Zankano
TTITLE9=Sachiko
TTITLE10=To Know The
TTITLE11=Different Life
TTITLE12=Subaru
TTITLE13=Seto No Hanayome
TTITLE14=Flowers And Butterflies
TTITLE15=Waltz
TTITLE16=Wrong (Australia Regulations Wind Harp)
TTITLE17=Dream Theater
TTITLE18=Love Is Over
TTITLE19=Apple Oiwake
EXTD=
EXTT0=
EXTT1=
EXTT2=
EXTT3=
EXTT4=
EXTT5=
EXTT6=
EXTT7=
EXTT8=
EXTT9=
EXTT10=
EXTT11=
EXTT12=
EXTT13=
EXTT14=
EXTT15=
EXTT16=
EXTT17=
EXTT18=
EXTT19=
PLAYORDER=
